
<svg xmlns="http://www.w3.org/2000/svg" viewBox="0 0 100 100">
  <g class="logo"> 

      <path class="v" d="M92.83,59.64v9.91c0,.37-.21,.71-.55,.89l-41.31,21.42c-.61,.31-1.34,.31-1.94,0L7.72,70.44c-.34-.17-.55-.52-.55-.89v-9.91c0-.37-.2-.7-.53-.88l-5.11-2.74c-.69-.37-1.53,.12-1.53,.88v16.83c0,.37,.21,.71,.55,.89l48.48,25.14c.61,.31,1.34,.31,1.94,0l48.48-25.14c.34-.17,.55-.52,.55-.89v-16.83c0-.76-.84-1.25-1.53-.88l-5.11,2.74c-.33,.18-.53,.51-.53,.88Z"/>

      <path class="m" d="M49.03,24.75L1.52,.12C.83-.24,0,.25,0,1.01V41.12c0,.37,.21,.71,.55,.89l5.11,2.66c.69,.36,1.52-.13,1.52-.89V12.63c0-.76,.83-1.24,1.52-.89l40.34,20.91c.61,.31,1.34,.31,1.94,0L91.31,11.74c.69-.36,1.52,.13,1.52,.89v31.15c0,.76,.83,1.24,1.52,.89l5.11-2.66c.34-.17,.55-.52,.55-.89V1.01c0-.76-.83-1.24-1.52-.89L50.97,24.75c-.61,.31-1.34,.31-1.94,0Z"/>  
      
  </g>
</svg>