<?xml version="1.0" encoding="UTF-8"?>
<svg id="Layer_2" data-name="Layer 2" xmlns="http://www.w3.org/2000/svg" viewBox="0 0 1080 1080">
  <g id="Layer_1-2" data-name="Layer 1">
    <g id="mv">
      <path id="v" d="M1002.53,644.15v107c0,4.01-2.27,7.69-5.91,9.58l-446.13,231.32c-6.56,3.4-14.43,3.4-20.99,0L83.37,760.73c-3.64-1.89-5.91-5.57-5.91-9.58v-107c0-3.95-2.21-7.6-5.77-9.5l-55.15-29.57c-7.43-3.99-16.54,1.25-16.54,9.5v181.82c0,4.01,2.27,7.69,5.91,9.58l523.6,271.47c6.56,3.4,14.43,3.4,20.99,0l523.6-271.47c3.64-1.89,5.91-5.57,5.91-9.58v-181.82c0-8.26-9.1-13.49-16.54-9.5l-55.16,29.57c-3.56,1.91-5.77,5.55-5.77,9.5Z" fill="#011424"/>
      <path id="m" d="M529.51,267.31L16.4,1.29C8.97-2.56,0,2.68,0,10.87V444.05c0,4,2.26,7.68,5.89,9.57l55.15,28.75c7.43,3.87,16.42-1.36,16.42-9.57V136.42c0-8.19,8.97-13.43,16.4-9.58l435.64,225.86c6.56,3.4,14.43,3.4,20.98,0L986.13,126.84c7.43-3.85,16.4,1.39,16.4,9.58V472.79c0,8.2,8.99,13.44,16.42,9.57l55.16-28.75c3.62-1.89,5.89-5.57,5.89-9.57V10.87c0-8.19-8.97-13.43-16.4-9.58L550.49,267.31c-6.56,3.4-14.43,3.4-20.98,0Z" fill="#011424"/>
    </g>
  </g>
</svg>