<svg xmlns="http://www.w3.org/2000/svg" viewBox="0 0 492 491.9"><defs><style>.cls-1{fill:#041424;}</style></defs><g id="Layer_2" data-name="Layer 2"><g id="Instagram_SVG" data-name="Instagram SVG"><g id="IG_logo" data-name="IG logo"><path id="body" class="cls-1" d="M84.9,12.9A120.63,120.63,0,0,0,41.3,41.3,120.27,120.27,0,0,0,12.9,84.8C6.8,100.4,2.7,118.3,1.5,144.5S0,179.1,0,245.9s.3,75.2,1.5,101.4S6.9,391.4,12.9,407a120.63,120.63,0,0,0,28.4,43.6A120.63,120.63,0,0,0,84.9,479c15.6,6.1,33.5,10.2,59.7,11.4s34.6,1.5,101.4,1.5,75.2-.3,101.4-1.5,44.1-5.4,59.7-11.4a126,126,0,0,0,72-72c6.1-15.6,10.2-33.5,11.4-59.7s1.5-34.6,1.5-101.4-.3-75.2-1.5-101.4-5.4-44.1-11.4-59.7a121.29,121.29,0,0,0-28.3-43.5,120.63,120.63,0,0,0-43.6-28.4C391.6,6.8,373.7,2.7,347.5,1.5S312.9,0,246.1,0,170.9.3,144.7,1.5,100.5,6.8,84.9,12.9ZM345.4,45.7c24,1.1,37,5.1,45.7,8.5a76.63,76.63,0,0,1,28.3,18.4,76.63,76.63,0,0,1,18.4,28.3c3.4,8.7,7.4,21.7,8.5,45.7,1.2,25.9,1.4,33.7,1.4,99.4s-.3,73.5-1.4,99.4c-1.1,24-5.1,37-8.5,45.7a81.39,81.39,0,0,1-46.7,46.7c-8.7,3.4-21.7,7.4-45.7,8.5-25.9,1.2-33.7,1.4-99.4,1.4s-73.5-.3-99.4-1.4c-24-1.1-37-5.1-45.7-8.5a76.63,76.63,0,0,1-28.3-18.4,76.63,76.63,0,0,1-18.4-28.3c-3.4-8.7-7.4-21.7-8.5-45.7-1.2-25.9-1.4-33.7-1.4-99.4s.3-73.5,1.4-99.4c1.1-24,5.1-37,8.5-45.7A76.63,76.63,0,0,1,72.6,72.6a76.63,76.63,0,0,1,28.3-18.4c8.7-3.4,21.7-7.4,45.7-8.5,25.9-1.2,33.7-1.4,99.4-1.4S319.5,44.5,345.4,45.7Z"/><path id="lens" class="cls-1" d="M119.7,246A126.3,126.3,0,1,0,246,119.7,126.3,126.3,0,0,0,119.7,246ZM328,246a82,82,0,1,1-82-82A82,82,0,0,1,328,246Z"/><circle id="flash" class="cls-1" cx="377.4" cy="114.7" r="29.5"/></g></g></g></svg>