<svg xmlns="http://www.w3.org/2000/svg" viewBox="0 0 174.95 174.95"><defs><style>.cls-1,.cls-2,.cls-3{fill:none;stroke:#041424;stroke-width:6.58px;}.cls-1,.cls-3{stroke-miterlimit:10;}.cls-2,.cls-3{stroke-linecap:round;}.cls-2{stroke-linejoin:round;}.cls-4{fill:#041424;}</style></defs><g id="Layer_2" data-name="Layer 2"><g id="main-image"><g id="ss-03"><circle class="cls-1" cx="87.47" cy="87.47" r="84.19"/><path class="cls-2" d="M137.35,137.35a70.53,70.53,0,0,1-99.75,0"/><path class="cls-2" d="M37.6,37.6a70.53,70.53,0,0,1,99.75,0"/><path class="cls-3" d="M140.19,108.88a56.92,56.92,0,0,1-74.12,31.31"/><path class="cls-3" d="M34.76,66.07a56.92,56.92,0,0,1,74.12-31.31"/><path class="cls-3" d="M44.24,87.47A43.26,43.26,0,0,1,87.47,44.24"/><path class="cls-3" d="M130.71,87.47a43.26,43.26,0,0,1-43.24,43.24"/><path class="cls-3" d="M60.14,98.8a29.62,29.62,0,0,1,16-38.66"/><path class="cls-3" d="M114.81,76.15a29.62,29.62,0,0,1-16,38.66"/><path class="cls-3" d="M76.21,98.74a15.93,15.93,0,0,1,0-22.53"/><path class="cls-3" d="M98.74,76.21a15.93,15.93,0,0,1,0,22.53"/><circle id="center" class="cls-4" cx="87.47" cy="87.47" r="5.46"/></g></g></g></svg>