
<svg version="1.1" class="baskerville" xmlns="http://www.w3.org/2000/svg" x="0px" y="0px" viewBox="0 0 440.95 2720.54">
	<path class="b" d="M238.95,208.26c-3.55,48.23-15.56,84.03-36.01,107.42c-20.46,23.38-46.04,35.08-76.73,35.08
		c-26.73,0-49.75-7.94-69.05-23.8c-19.31-15.87-31.94-36.17-37.89-60.91c-5.95-24.74-8.92-57.89-8.92-99.43V0h14.41v16.29
		c0,18.16,2.3,30.74,6.89,37.74c4.59,6.99,11.74,11.43,21.45,13.31s32.31,2.82,67.8,2.82h206.7c34.45,0,56.68-0.99,66.71-2.98
		c10.02-1.99,16.91-6.16,20.67-12.53c3.76-6.37,5.64-20.31,5.64-41.81V4.7H435l1.88,69.84l2.51,79.55
		c0,116.08-33.41,174.12-100.22,174.12c-27.56,0-49.69-9.97-66.39-29.91C256.07,278.36,244.79,248.35,238.95,208.26z M244.9,131.53
		c-0.21,5.22-0.31,9.6-0.31,13.15c0,45.1,7.09,75.89,21.3,92.39c14.2,16.49,37.16,24.74,68.9,24.74c22.13,0,39.25-3.24,51.36-9.71
		c12.11-6.47,21.45-16.18,28.03-29.12c6.58-12.95,9.87-35.08,9.87-66.39c0-8.14-0.31-16.5-0.94-25.05H244.9z M229.56,131.53h-94.58
		c-40.3,0-65.87,0.73-76.73,2.19c-10.86,1.46-19.1,5.37-24.74,11.74c-5.64,6.37-8.46,18.95-8.46,37.74c0,33.4,8.56,58.46,25.68,75.16
		c17.12,16.7,42.8,25.05,77.04,25.05c35.08,0,60.91-9.45,77.51-28.34c16.6-18.9,24.9-52.14,24.9-99.75
		C230.18,147.82,229.97,139.88,229.56,131.53z"/>
	<path class="a" d="M57.31,661.74v11.59c-35.7-1.88-53.55-19.42-53.55-52.61c0-14.2,3.76-25.42,11.27-33.67
		c7.52-8.25,18.68-13.62,33.51-16.13c-14.83-20.88-25.99-39.93-33.51-57.15c-7.52-17.22-11.27-32.62-11.27-46.19
		c0-17.33,5.01-32.26,15.03-44.78s23.28-18.79,39.77-18.79c21.5,0,40.29,10.49,56.37,31.47c16.08,20.98,31.73,49.95,46.98,86.91
		l19.73,48.54h12.53c17.74,0,30.58-1.15,38.52-3.44c7.93-2.3,15.03-8.25,21.29-17.85c6.26-9.61,9.4-22.24,9.4-37.89
		c0-31.32-10.44-48.75-31.32-52.3c-21.3-3.34-31.94-12.11-31.94-26.31c0-12.74,6.05-19.1,18.16-19.1c11.9,0,24.69,8.46,38.36,25.37
		c13.67,16.91,20.51,43.22,20.51,78.92c0,26.51-4.18,47.08-12.53,61.69c-8.35,14.61-17.85,24.27-28.5,28.97
		c-10.65,4.7-26.93,7.05-48.85,7.05H83.62c-24.22,0-39.77,1.25-46.66,3.76c-6.89,2.51-10.33,7.93-10.33,16.28
		C26.62,649.84,36.85,658.39,57.31,661.74z M166.92,570.92l-13.78-34.14c-21.92-53.87-49.48-80.8-82.68-80.8
		c-13.15,0-23.75,3.44-31.79,10.33c-8.04,6.89-12.06,15.86-12.06,26.93c0,9.81,3.23,21.19,9.71,34.14
		c6.47,12.94,16.18,27.45,29.12,43.53H166.92z"/>
	<path class="s" d="M2.19,705.89h84.24v12.21c-48.65,14.2-72.97,39.56-72.97,76.1c0,15.86,4.8,27.72,14.41,35.54
		c9.6,7.83,20.15,11.74,31.63,11.74c13.36,0,24.32-4.18,32.88-12.53c8.56-8.56,18.89-25.16,31-49.79
		c12.73-25.89,25.26-44.47,37.58-55.74c12.11-11.27,27.04-16.91,44.78-16.91c16.91,0,33.04,6.05,48.39,18.16
		c15.35,12.11,23.02,29.13,23.02,51.05c0,22.34-9.08,40.82-27.25,55.43c3.13,3.13,10.75,7.2,22.86,12.21v11.59h-79.23v-11.59
		c19-4.18,35.33-12.27,49.01-24.27c13.67-12.01,20.51-26.15,20.51-42.44c0-12.53-3.87-22.66-11.59-30.38
		c-7.73-7.73-16.71-11.59-26.93-11.59c-11.27,0-20.98,4.28-29.13,12.84c-8.35,8.35-17.85,24.32-28.5,47.92
		c-16.08,35.49-31.74,57.2-46.98,65.14c-15.45,7.93-30.27,11.9-44.47,11.9c-22.34,0-40.51-7.36-54.49-22.08S0,817.17,0,794.83
		c0-23.6,9.71-44.58,29.12-62.95c-6.26-5.64-15.24-10.23-26.93-13.78V705.89z"/>
	<path class="k" d="M266.82,1063.22v103.35h-14.41c-0.42-19-14.62-44.47-42.59-76.41c-8.77-10.23-21.61-26.1-38.52-47.6L64.2,1134
		c-16.08,13.78-26.57,24.63-31.47,32.57c-4.91,7.93-7.57,16.07-7.99,24.43H10.33v-127.77h14.41c0.42,21.3,5.01,31.94,13.78,31.94
		c3.96,0,14.09-7,30.38-20.98l76.41-65.77l-10.02-13.47H98.34c-27.35,0-44.52,0.36-51.52,1.1c-7,0.73-12.42,3.7-16.29,8.93
		c-3.87,5.22-5.79,14.3-5.79,27.25H10.33V902.25h14.41v9.71c0,15.03,2.14,24.79,6.42,29.28c4.28,4.49,9.39,7.05,15.34,7.67
		c5.95,0.63,23.22,0.94,51.83,0.94h257.12c24.84,0,40.71-2.35,47.6-7.05s10.33-16.03,10.33-33.98h14.41
		c0,12.32,1.46,27.09,4.38,44.31c2.92,17.22,5.84,28.97,8.77,35.23v6.58H152.52l18.79,26.93c30.9,43.63,53.13,65.45,66.71,65.45
		c9.19,0,13.99-8.04,14.41-24.11H266.82z"/>
	<path class="e" d="M180.08,1444.04v-178.82c-12.32-0.84-21.51-1.25-27.56-1.25c-45.1,0-78.97,7.05-101.62,21.14
		c-22.66,14.09-33.98,35.12-33.98,63.1c0,38,17.01,64.93,51.05,80.8v15.03c-21.3-6.68-37.95-19.94-49.95-39.77
		C6,1384.43,0,1362.82,0,1339.44c0-21.72,5.48-42.23,16.44-61.54c10.96-19.31,26.46-35.13,46.51-47.45
		c20.04-12.32,44.36-18.48,72.97-18.48c40.5,0,74.17,11.9,101,35.7c26.83,23.8,40.24,53.55,40.24,89.25
		c0,33.61-10.23,59.61-30.69,77.98C226,1433.29,203.88,1443,180.08,1444.04z M192.6,1389.24c4.8,0.63,9.08,0.94,12.84,0.94
		c18.37,0,32.62-5.38,42.75-16.13c10.12-10.76,15.19-23.96,15.19-39.62c0-38-23.6-60.65-70.78-67.96V1389.24z"/>
	<path class="r" d="M211.71,1575.26c18.58,7.1,34.14,18.63,46.66,34.61c12.53,15.97,18.79,31.58,18.79,46.82
		c0,13.78-4.28,24.63-12.84,32.57c-8.56,7.93-17.33,11.9-26.31,11.9c-6.06,0-11.27-2.04-15.66-6.11c-4.38-4.07-6.58-9.03-6.58-14.88
		c0-10.44,7.72-18.37,23.17-23.8c10.44-3.76,15.66-9.4,15.66-16.91c0-8.98-6.11-19.73-18.32-32.26
		c-12.21-12.53-24.9-20.57-38.05-24.11c-13.15-3.55-31.21-5.32-54.18-5.32H98.34c-27.35,0-44.58,0.36-51.67,1.1
		c-7.1,0.73-12.53,3.7-16.29,8.93c-3.76,5.22-5.64,14.51-5.64,27.87v8.77H10.33V1488.2h14.41v6.58c0,12.53,1.72,21.45,5.17,26.78
		c3.44,5.32,8.3,8.5,14.56,9.55c6.26,1.04,24.22,1.57,53.87,1.57h72.34c27.56,0,44.83-0.37,51.83-1.1
		c6.99-0.73,12.42-3.71,16.29-8.93c3.86-5.22,5.79-14.51,5.79-27.87v-6.58h14.09c2.29,19.62,8.46,45.3,18.48,77.04
		C260.66,1571.3,238.84,1574.64,211.71,1575.26z"/>
	<path class="v" d="M0,1858.06v-18.16l205.75-91.13c19.83-8.98,32.46-16.08,37.89-21.3c5.43-5.22,8.35-13.78,8.77-25.68h14.41v115.87
		h-14.41c0-12.74-1.05-21.45-3.13-26.15c-2.09-4.7-6.06-7.05-11.9-7.05c-4.59,0-15.77,4.17-33.51,12.53L48.23,1866.2l138.74,62.32
		c22.13,9.81,36.53,14.72,43.22,14.72c13.99,0,21.4-10.44,22.24-31.32h14.41v86.44h-14.41c-0.63-10.65-5.06-19.57-13.31-26.78
		c-8.25-7.2-26.78-17.28-55.59-30.22L0,1858.06z"/>
	<path class="i" d="M277.16,2099.83H98.34c-27.35,0-44.58,0.42-51.67,1.25c-7.1,0.83-12.53,3.86-16.29,9.08
		c-3.76,5.22-5.64,14.51-5.64,27.87v6.58H10.33V2006.5h14.41v10.65c0,14.82,2.14,24.48,6.42,28.97c4.28,4.49,9.39,7.1,15.34,7.83
		c5.95,0.73,23.22,1.1,51.83,1.1H176c30.06,0,48.43-1.41,55.12-4.23c6.68-2.82,10.85-6.58,12.53-11.27c1.67-4.7,2.5-12.89,2.5-24.58
		v-8.46h14.41c3.76,37.16,9.29,65.97,16.6,86.44V2099.83z M408.07,2039.39c8.97,0,16.7,3.18,23.17,9.55
		c6.47,6.37,9.71,14.04,9.71,23.02c0,8.97-3.24,16.6-9.71,22.86c-6.47,6.26-14.2,9.39-23.17,9.39c-9.19,0-17.02-3.13-23.49-9.39
		c-6.47-6.26-9.71-13.89-9.71-22.86c0-8.98,3.23-16.65,9.71-23.02C391.05,2042.57,398.88,2039.39,408.07,2039.39z"/>
	<path class="l" d="M440.95,2255.16H98.34c-27.35,0-44.58,0.36-51.67,1.1c-7.1,0.73-12.53,3.7-16.29,8.93
		c-3.76,5.22-5.64,14.51-5.64,27.87v7.52H10.33V2163.4h14.41v8.77c0,12.53,1.72,21.45,5.17,26.78c3.44,5.32,8.3,8.5,14.56,9.55
		c6.26,1.04,24.22,1.57,53.87,1.57h253.67c26.93,0,43.89-2.4,50.89-7.2c6.99-4.8,10.49-16.5,10.49-35.08h14.41
		c0,12.73,1.46,27.72,4.38,44.94c2.92,17.22,5.84,29.07,8.77,35.54V2255.16z"/>
	<path class="l-2" d="M440.95,2408.93H98.34c-27.35,0-44.58,0.36-51.67,1.1
		c-7.1,0.73-12.53,3.7-16.29,8.93c-3.76,5.22-5.64,14.51-5.64,27.87v7.52H10.33v-137.17h14.41v8.77c0,12.53,1.72,21.45,5.17,26.78
		c3.44,5.32,8.3,8.5,14.56,9.55c6.26,1.04,24.22,1.57,53.87,1.57h253.67c26.93,0,43.89-2.4,50.89-7.2
		c6.99-4.8,10.49-16.5,10.49-35.08h14.41c0,12.73,1.46,27.72,4.38,44.94c2.92,17.22,5.84,29.07,8.77,35.54V2408.93z"/>
	<path class="e-2" d="M180.08,2720.54v-178.82c-12.32-0.84-21.51-1.25-27.56-1.25
		c-45.1,0-78.97,7.05-101.62,21.14c-22.66,14.09-33.98,35.12-33.98,63.1c0,38,17.01,64.93,51.05,80.8v15.03
		c-21.3-6.68-37.95-19.94-49.95-39.77C6,2660.93,0,2639.32,0,2615.94c0-21.72,5.48-42.23,16.44-61.54
		c10.96-19.31,26.46-35.13,46.51-47.45c20.04-12.32,44.36-18.48,72.97-18.48c40.5,0,74.17,11.9,101,35.7
		c26.83,23.8,40.24,53.55,40.24,89.25c0,33.61-10.23,59.61-30.69,77.98C226,2709.79,203.88,2719.49,180.08,2720.54z M192.6,2665.74
		c4.8,0.63,9.08,0.94,12.84,0.94c18.37,0,32.62-5.38,42.75-16.13c10.12-10.76,15.19-23.96,15.19-39.62c0-38-23.6-60.65-70.78-67.96
		V2665.74z"/>
</svg>
