<svg version="1.1" class="letter" xmlns="http://www.w3.org/2000/svg" x="0px" y="0px" viewBox="0 0 201.49 297.95">
	<path class="g" d="M141.5,23.07C153.95,9.01,166.55,1.98,179.3,1.98c7.03,0,12.49,1.91,16.37,5.71c3.88,3.81,5.82,7.99,5.82,12.52
	c0,9.67-4.39,14.5-13.18,14.5c-4.83,0-9.01-3-12.52-9.01c-3.22-5.57-6.59-8.35-10.11-8.35c-5.57,0-11.72,3.81-18.46,11.43
	c7.61,12.01,11.43,24.76,11.43,38.23c0,17.58-6.3,33.11-18.9,46.58c-12.6,13.62-33.84,20.95-63.72,21.97
	c-31.06,1.03-46.58,7.33-46.58,18.9c0,5.42,3.52,9.23,10.55,11.43c6.88,2.34,21.39,4.1,43.51,5.27c24.17,1.17,42.77,3.41,55.81,6.7
	c13.04,3.3,23.44,9.92,31.2,19.89c7.76,9.96,11.65,21.82,11.65,35.6c0,19.34-7.91,34.94-23.73,46.8s-38.6,17.8-68.33,17.8
	c-27.25,0-49.07-5.27-65.48-15.82C8.2,271.58,0,258.25,0,242.14c0-8.94,2.34-16.26,7.03-21.97c4.69-5.71,11.35-8.57,20-8.57
	c2.34,0,4.47,0.36,6.37,1.1c-9.08,9.96-13.62,20.51-13.62,31.64c0,12.89,6.04,23.55,18.13,31.97c12.08,8.42,30.14,12.63,54.16,12.63
	c21.39,0,38.05-4.28,49.99-12.85c11.94-8.57,17.91-19.52,17.91-32.85c0-14.65-5.35-24.98-16.04-30.98
	c-10.69-5.86-29.74-9.38-57.13-10.55c-31.5-1.32-51.93-5.2-61.3-11.65c-9.38-6.3-14.06-14.43-14.06-24.39
	c0-19.19,13.4-31.27,40.21-36.25c-13.92-8.2-24.39-17.58-31.42-28.12S9.67,78.96,9.67,65.92c0-18.31,7.21-33.87,21.64-46.69
	C45.74,6.41,62.84,0,82.62,0C107.08,0,126.71,7.69,141.5,23.07z M42.63,70.97c0,18.9,3.88,32.74,11.65,41.53
	c7.76,8.79,17.65,13.18,29.66,13.18c11.13,0,20.69-4.36,28.67-13.07c7.98-8.71,11.98-23.84,11.98-45.37
	c0-21.68-4.25-36.62-12.74-44.82c-8.5-8.2-18.09-12.3-28.78-12.3c-13.48,0-23.59,5.05-30.32,15.16C46,35.38,42.63,50.61,42.63,70.97
	z"/>
</svg>
